<svg width="21" height="21" viewBox="0 0 21 21" fill="none" xmlns="http://www.w3.org/2000/svg">
<path fill-rule="evenodd" clip-rule="evenodd" d="M3.39453 5.64844C3.39453 5.38322 3.49989 5.12887 3.68742 4.94133C3.87496 4.75379 4.12931 4.64844 4.39453 4.64844H16.3945C16.6597 4.64844 16.9141 4.75379 17.1016 4.94133C17.2892 5.12887 17.3945 5.38322 17.3945 5.64844C17.3945 5.91365 17.2892 6.16801 17.1016 6.35554C16.9141 6.54308 16.6597 6.64844 16.3945 6.64844H4.39453C4.12931 6.64844 3.87496 6.54308 3.68742 6.35554C3.49989 6.16801 3.39453 5.91365 3.39453 5.64844ZM3.39453 10.6484C3.39453 10.3832 3.49989 10.1289 3.68742 9.94133C3.87496 9.75379 4.12931 9.64844 4.39453 9.64844H16.3945C16.6597 9.64844 16.9141 9.75379 17.1016 9.94133C17.2892 10.1289 17.3945 10.3832 17.3945 10.6484C17.3945 10.9137 17.2892 11.168 17.1016 11.3555C16.9141 11.5431 16.6597 11.6484 16.3945 11.6484H4.39453C4.12931 11.6484 3.87496 11.5431 3.68742 11.3555C3.49989 11.168 3.39453 10.9137 3.39453 10.6484ZM3.39453 15.6484C3.39453 15.3832 3.49989 15.1289 3.68742 14.9413C3.87496 14.7538 4.12931 14.6484 4.39453 14.6484H16.3945C16.6597 14.6484 16.9141 14.7538 17.1016 14.9413C17.2892 15.1289 17.3945 15.3832 17.3945 15.6484C17.3945 15.9137 17.2892 16.168 17.1016 16.3555C16.9141 16.5431 16.6597 16.6484 16.3945 16.6484H4.39453C4.12931 16.6484 3.87496 16.5431 3.68742 16.3555C3.49989 16.168 3.39453 15.9137 3.39453 15.6484Z" fill="black"/>
</svg>
